# xmcd
# Copyright (C) 1995-1998 Ti Kan
#
# Track frame offsets:
#       150
#       15918
#       32332
#       46730
#       55811
#       63491
#       68883
#       74358
#       84941
#       94240
#       99672
#       125762
#       131792
#       145922
#       158245
#       173962
#       179499
#       183130
#       197383
#       209605
#       228754
#       239967
#       250509
#       260264
#
# Disc length: 3624 seconds
#
# Revision: 0
# Processed by: cddbd v1.5.2PL0 Copyright (c) Steve Scherf et al.
# Submitted via: CD-Import v1.0
#
DISCID=4e0e2618
DTITLE=Urban Frey and Freunde - Von Irland Nach Venedig
DYEAR=2004
DGENRE=
TTITLE0=01 King Of The Fairies - Drowsy Maggie (Ireland)
TTITLE1=02 Skye Boat Song (Ireland)
TTITLE2=03 Greensleeves And Pudding Pies (Ireland)
TTITLE3=04 Andante (G. P. Telemann Partita In E-Moll)
TTITLE4=05 Vivace - Aria 1 (G. P. Telemann Partita In E-Moll)
TTITLE5=06 Presto Aria 2 (G. P. Telemann Partita In E-Moll)
TTITLE6=07 Vivace - Aria 3 (G. P. Telemann Partita In E-Moll)
TTITLE7=08 Siciliana - Aria 4 (G. P. Telemann Partita In E-Moll)
TTITLE8=09 Vivace - Aria 5 (G. P. Telemann Partita In E-Moll)
TTITLE9=10 Presto - Aria 6 (G. P. Telemann Partita In E-Moll)
TTITLE10=11 Chassidisch Nigunim (Klezmer)
TTITLE11=12 Bulgar "chromatico" (Klezmer)
TTITLE12=13 Em Sepp Walser Z'lieb (Erwin Alder, Schweiz)
TTITLE13=14 De Lückebüesser (Geri Züger, Schweiz)
TTITLE14=15 Malojawind (Ueli Mooser, Schweiz)
TTITLE15=16 Transilvanie (Rumänien)
TTITLE16=17 Jampara (Rumänien)
TTITLE17=18 De Ce M-Ai Parasit (Rumänien)
TTITLE18=19 In Micul Sat (Rumänien)
TTITLE19=20 Doina Din Muntenia (Rumänien)
TTITLE20=21 Preludio - Grave (A. Vivaldi Triosonate In E-Moll)
TTITLE21=22 Corrente - Allegro Con Energia (A. Vivaldi Triosonate In E-Moll)
TTITLE22=23 Sarabanda - Largo (A. Vivaldi Triosonate In E-Moll)
TTITLE23=24 Giga - Allegro Vivo (A. Vivaldi Triosonate In E-Moll)
EXTD=
EXTT0=
EXTT1=
EXTT2=
EXTT3=
EXTT4=
EXTT5=
EXTT6=
EXTT7=
EXTT8=
EXTT9=
EXTT10=
EXTT11=
EXTT12=
EXTT13=
EXTT14=
EXTT15=
EXTT16=
EXTT17=
EXTT18=
EXTT19=
EXTT20=
EXTT21=
EXTT22=
EXTT23=
PLAYORDER=
